<svg width="600" height="347" viewBox="0 0 600 347" xmlns="http://www.w3.org/2000/svg"> <style type="text/css"> polygon { fill: rgba(0,0,0,0.188); transform: scale(162%); } </style> <polygon points="0.0,0.0 20.0,0.0 30.0,17.3205 20.0,34.641 0.0,34.641 -10.0,17.3205" fill-opacity="0.2" /> <polygon points="30.0,-17.3205 50.0,-17.3205 60.0,0.0 50.0,17.3205 30.0,17.3205 20.0,0.0" fill-opacity="0.53" /> <polygon points="60.0,0.0 80.0,0.0 90.0,17.3205 80.0,34.641 60.0,34.641 50.0,17.3205" fill-opacity="0.84" /> <polygon points="90.0,-17.3205 110.0,-17.3205 120.0,0.0 110.0,17.3205 90.0,17.3205 80.0,0.0" fill-opacity="0.32" /> <polygon points="120.0,0.0 140.0,0.0 150.0,17.3205 140.0,34.641 120.0,34.641 110.0,17.3205" fill-opacity="0.3" /> <polygon points="150.0,-17.3205 170.0,-17.3205 180.0,0.0 170.0,17.3205 150.0,17.3205 140.0,0.0" fill-opacity="0.54" /> <polygon points="180.0,0.0 200.0,0.0 210.0,17.3205 200.0,34.641 180.0,34.641 170.0,17.3205" fill-opacity="0.51" /> <polygon points="210.0,-17.3205 230.0,-17.3205 240.0,0.0 230.0,17.3205 210.0,17.3205 200.0,0.0" fill-opacity="0.01" /> <polygon points="240.0,0.0 260.0,0.0 270.0,17.3205 260.0,34.641 240.0,34.641 230.0,17.3205" fill-opacity="0.31" /> <polygon points="270.0,-17.3205 290.0,-17.3205 300.0,0.0 290.0,17.3205 270.0,17.3205 260.0,0.0" fill-opacity="0.82" /> <polygon points="300.0,0.0 320.0,0.0 330.0,17.3205 320.0,34.641 300.0,34.641 290.0,17.3205" fill-opacity="0.05" /> <polygon points="330.0,-17.3205 350.0,-17.3205 360.0,0.0 350.0,17.3205 330.0,17.3205 320.0,0.0" fill-opacity="0.75" /> <polygon points="360.0,0.0 380.0,0.0 390.0,17.3205 380.0,34.641 360.0,34.641 350.0,17.3205" fill-opacity="0.27" /> <polygon points="390.0,-17.3205 410.0,-17.3205 420.0,0.0 410.0,17.3205 390.0,17.3205 380.0,0.0" fill-opacity="0.67" /> <polygon points="420.0,0.0 440.0,0.0 450.0,17.3205 440.0,34.641 420.0,34.641 410.0,17.3205" fill-opacity="0.75" /> <polygon points="450.0,-17.3205 470.0,-17.3205 480.0,0.0 470.0,17.3205 450.0,17.3205 440.0,0.0" fill-opacity="0.33" /> <polygon points="480.0,0.0 500.0,0.0 510.0,17.3205 500.0,34.641 480.0,34.641 470.0,17.3205" fill-opacity="0.01" /> <polygon points="510.0,-17.3205 530.0,-17.3205 540.0,0.0 530.0,17.3205 510.0,17.3205 500.0,0.0" fill-opacity="0.39" /> <polygon points="540.0,0.0 560.0,0.0 570.0,17.3205 560.0,34.641 540.0,34.641 530.0,17.3205" fill-opacity="0.53" /> <polygon points="570.0,-17.3205 590.0,-17.3205 600.0,0.0 590.0,17.3205 570.0,17.3205 560.0,0.0" fill-opacity="0.81" /> <polygon points="0.0,34.641 20.0,34.641 30.0,51.9615 20.0,69.282 0.0,69.282 -10.0,51.9615" fill-opacity="0.95" /> <polygon points="30.0,17.3205 50.0,17.3205 60.0,34.641 50.0,51.9615 30.0,51.9615 20.0,34.641" fill-opacity="0.82" /> <polygon points="60.0,34.641 80.0,34.641 90.0,51.9615 80.0,69.282 60.0,69.282 50.0,51.9615" fill-opacity="0.15" /> <polygon points="90.0,17.3205 110.0,17.3205 120.0,34.641 110.0,51.9615 90.0,51.9615 80.0,34.641" fill-opacity="0.46" /> <polygon points="120.0,34.641 140.0,34.641 150.0,51.9615 140.0,69.282 120.0,69.282 110.0,51.9615" fill-opacity="0.93" /> <polygon points="150.0,17.3205 170.0,17.3205 180.0,34.641 170.0,51.9615 150.0,51.9615 140.0,34.641" fill-opacity="0.88" /> <polygon points="180.0,34.641 200.0,34.641 210.0,51.9615 200.0,69.282 180.0,69.282 170.0,51.9615" fill-opacity="0.2" /> <polygon points="210.0,17.3205 230.0,17.3205 240.0,34.641 230.0,51.9615 210.0,51.9615 200.0,34.641" fill-opacity="0.05" /> <polygon points="240.0,34.641 260.0,34.641 270.0,51.9615 260.0,69.282 240.0,69.282 230.0,51.9615" fill-opacity="0.95" /> <polygon points="270.0,17.3205 290.0,17.3205 300.0,34.641 290.0,51.9615 270.0,51.9615 260.0,34.641" fill-opacity="0.97" /> <polygon points="300.0,34.641 320.0,34.641 330.0,51.9615 320.0,69.282 300.0,69.282 290.0,51.9615" fill-opacity="0.92" /> <polygon points="330.0,17.3205 350.0,17.3205 360.0,34.641 350.0,51.9615 330.0,51.9615 320.0,34.641" fill-opacity="0.27" /> <polygon points="360.0,34.641 380.0,34.641 390.0,51.9615 380.0,69.282 360.0,69.282 350.0,51.9615" fill-opacity="0.44" /> <polygon points="390.0,17.3205 410.0,17.3205 420.0,34.641 410.0,51.9615 390.0,51.9615 380.0,34.641" fill-opacity="0.11" /> <polygon points="420.0,34.641 440.0,34.641 450.0,51.9615 440.0,69.282 420.0,69.282 410.0,51.9615" fill-opacity="0.65" /> <polygon points="450.0,17.3205 470.0,17.3205 480.0,34.641 470.0,51.9615 450.0,51.9615 440.0,34.641" fill-opacity="0.35" /> <polygon points="480.0,34.641 500.0,34.641 510.0,51.9615 500.0,69.282 480.0,69.282 470.0,51.9615" fill-opacity="0.79" /> <polygon points="510.0,17.3205 530.0,17.3205 540.0,34.641 530.0,51.9615 510.0,51.9615 500.0,34.641" fill-opacity="0.58" /> <polygon points="540.0,34.641 560.0,34.641 570.0,51.9615 560.0,69.282 540.0,69.282 530.0,51.9615" fill-opacity="0.66" /> <polygon points="570.0,17.3205 590.0,17.3205 600.0,34.641 590.0,51.9615 570.0,51.9615 560.0,34.641" fill-opacity="0.76" /> <polygon points="0.0,69.282 20.0,69.282 30.0,86.6025 20.0,103.923 0.0,103.923 -10.0,86.6025" fill-opacity="0.89" /> <polygon points="30.0,51.9615 50.0,51.9615 60.0,69.282 50.0,86.6025 30.0,86.6025 20.0,69.282" fill-opacity="0.77" /> <polygon points="60.0,69.282 80.0,69.282 90.0,86.6025 80.0,103.923 60.0,103.923 50.0,86.6025" fill-opacity="0.12" /> <polygon points="90.0,51.9615 110.0,51.9615 120.0,69.282 110.0,86.6025 90.0,86.6025 80.0,69.282" fill-opacity="0.84" /> <polygon points="120.0,69.282 140.0,69.282 150.0,86.6025 140.0,103.923 120.0,103.923 110.0,86.6025" fill-opacity="0.5" /> <polygon points="150.0,51.9615 170.0,51.9615 180.0,69.282 170.0,86.6025 150.0,86.6025 140.0,69.282" fill-opacity="0.38" /> <polygon points="180.0,69.282 200.0,69.282 210.0,86.6025 200.0,103.923 180.0,103.923 170.0,86.6025" fill-opacity="0.41" /> <polygon points="210.0,51.9615 230.0,51.9615 240.0,69.282 230.0,86.6025 210.0,86.6025 200.0,69.282" fill-opacity="0.2" /> <polygon points="240.0,69.282 260.0,69.282 270.0,86.6025 260.0,103.923 240.0,103.923 230.0,86.6025" fill-opacity="0.97" /> <polygon points="270.0,51.9615 290.0,51.9615 300.0,69.282 290.0,86.6025 270.0,86.6025 260.0,69.282" fill-opacity="0.14" /> <polygon points="300.0,69.282 320.0,69.282 330.0,86.6025 320.0,103.923 300.0,103.923 290.0,86.6025" fill-opacity="0.03" /> <polygon points="330.0,51.9615 350.0,51.9615 360.0,69.282 350.0,86.6025 330.0,86.6025 320.0,69.282" fill-opacity="0.76" /> <polygon points="360.0,69.282 380.0,69.282 390.0,86.6025 380.0,103.923 360.0,103.923 350.0,86.6025" fill-opacity="1.0" /> <polygon points="390.0,51.9615 410.0,51.9615 420.0,69.282 410.0,86.6025 390.0,86.6025 380.0,69.282" fill-opacity="0.77" /> <polygon points="420.0,69.282 440.0,69.282 450.0,86.6025 440.0,103.923 420.0,103.923 410.0,86.6025" fill-opacity="0.02" /> <polygon points="450.0,51.9615 470.0,51.9615 480.0,69.282 470.0,86.6025 450.0,86.6025 440.0,69.282" fill-opacity="0.45" /> <polygon points="480.0,69.282 500.0,69.282 510.0,86.6025 500.0,103.923 480.0,103.923 470.0,86.6025" fill-opacity="0.1" /> <polygon points="510.0,51.9615 530.0,51.9615 540.0,69.282 530.0,86.6025 510.0,86.6025 500.0,69.282" fill-opacity="0.17" /> <polygon points="540.0,69.282 560.0,69.282 570.0,86.6025 560.0,103.923 540.0,103.923 530.0,86.6025" fill-opacity="0.2" /> <polygon points="570.0,51.9615 590.0,51.9615 600.0,69.282 590.0,86.6025 570.0,86.6025 560.0,69.282" fill-opacity="0.47" /> <polygon points="0.0,103.923 20.0,103.923 30.0,121.2436 20.0,138.5641 0.0,138.5641 -10.0,121.2436" fill-opacity="0.74" /> <polygon points="30.0,86.6025 50.0,86.6025 60.0,103.923 50.0,121.2436 30.0,121.2436 20.0,103.923" fill-opacity="0.59" /> <polygon points="60.0,103.923 80.0,103.923 90.0,121.2436 80.0,138.5641 60.0,138.5641 50.0,121.2436" fill-opacity="0.17" /> <polygon points="90.0,86.6025 110.0,86.6025 120.0,103.923 110.0,121.2436 90.0,121.2436 80.0,103.923" fill-opacity="0.65" /> <polygon points="120.0,103.923 140.0,103.923 150.0,121.2436 140.0,138.5641 120.0,138.5641 110.0,121.2436" fill-opacity="0.8" /> <polygon points="150.0,86.6025 170.0,86.6025 180.0,103.923 170.0,121.2436 150.0,121.2436 140.0,103.923" fill-opacity="0.02" /> <polygon points="180.0,103.923 200.0,103.923 210.0,121.2436 200.0,138.5641 180.0,138.5641 170.0,121.2436" fill-opacity="0.96" /> <polygon points="210.0,86.6025 230.0,86.6025 240.0,103.923 230.0,121.2436 210.0,121.2436 200.0,103.923" fill-opacity="0.75" /> <polygon points="240.0,103.923 260.0,103.923 270.0,121.2436 260.0,138.5641 240.0,138.5641 230.0,121.2436" fill-opacity="0.29" /> <polygon points="270.0,86.6025 290.0,86.6025 300.0,103.923 290.0,121.2436 270.0,121.2436 260.0,103.923" fill-opacity="0.38" /> <polygon points="300.0,103.923 320.0,103.923 330.0,121.2436 320.0,138.5641 300.0,138.5641 290.0,121.2436" fill-opacity="0.11" /> <polygon points="330.0,86.6025 350.0,86.6025 360.0,103.923 350.0,121.2436 330.0,121.2436 320.0,103.923" fill-opacity="0.63" /> <polygon points="360.0,103.923 380.0,103.923 390.0,121.2436 380.0,138.5641 360.0,138.5641 350.0,121.2436" fill-opacity="0.44" /> <polygon points="390.0,86.6025 410.0,86.6025 420.0,103.923 410.0,121.2436 390.0,121.2436 380.0,103.923" fill-opacity="0.78" /> <polygon points="420.0,103.923 440.0,103.923 450.0,121.2436 440.0,138.5641 420.0,138.5641 410.0,121.2436" fill-opacity="0.63" /> <polygon points="450.0,86.6025 470.0,86.6025 480.0,103.923 470.0,121.2436 450.0,121.2436 440.0,103.923" fill-opacity="0.83" /> <polygon points="480.0,103.923 500.0,103.923 510.0,121.2436 500.0,138.5641 480.0,138.5641 470.0,121.2436" fill-opacity="0.58" /> <polygon points="510.0,86.6025 530.0,86.6025 540.0,103.923 530.0,121.2436 510.0,121.2436 500.0,103.923" fill-opacity="0.14" /> <polygon points="540.0,103.923 560.0,103.923 570.0,121.2436 560.0,138.5641 540.0,138.5641 530.0,121.2436" fill-opacity="0.45" /> <polygon points="570.0,86.6025 590.0,86.6025 600.0,103.923 590.0,121.2436 570.0,121.2436 560.0,103.923" fill-opacity="0.08" /> <polygon points="0.0,138.5641 20.0,138.5641 30.0,155.8846 20.0,173.2051 0.0,173.2051 -10.0,155.8846" fill-opacity="0.31" /> <polygon points="30.0,121.2436 50.0,121.2436 60.0,138.5641 50.0,155.8846 30.0,155.8846 20.0,138.5641" fill-opacity="0.76" /> <polygon points="60.0,138.5641 80.0,138.5641 90.0,155.8846 80.0,173.2051 60.0,173.2051 50.0,155.8846" fill-opacity="0.61" /> <polygon points="90.0,121.2436 110.0,121.2436 120.0,138.5641 110.0,155.8846 90.0,155.8846 80.0,138.5641" fill-opacity="0.13" /> <polygon points="120.0,138.5641 140.0,138.5641 150.0,155.8846 140.0,173.2051 120.0,173.2051 110.0,155.8846" fill-opacity="0.31" /> <polygon points="150.0,121.2436 170.0,121.2436 180.0,138.5641 170.0,155.8846 150.0,155.8846 140.0,138.5641" fill-opacity="0.28" /> <polygon points="180.0,138.5641 200.0,138.5641 210.0,155.8846 200.0,173.2051 180.0,173.2051 170.0,155.8846" fill-opacity="0.79" /> <polygon points="210.0,121.2436 230.0,121.2436 240.0,138.5641 230.0,155.8846 210.0,155.8846 200.0,138.5641" fill-opacity="0.34" /> <polygon points="240.0,138.5641 260.0,138.5641 270.0,155.8846 260.0,173.2051 240.0,173.2051 230.0,155.8846" fill-opacity="0.54" /> <polygon points="270.0,121.2436 290.0,121.2436 300.0,138.5641 290.0,155.8846 270.0,155.8846 260.0,138.5641" fill-opacity="0.11" /> <polygon points="300.0,138.5641 320.0,138.5641 330.0,155.8846 320.0,173.2051 300.0,173.2051 290.0,155.8846" fill-opacity="0.46" /> <polygon points="330.0,121.2436 350.0,121.2436 360.0,138.5641 350.0,155.8846 330.0,155.8846 320.0,138.5641" fill-opacity="0.39" /> <polygon points="360.0,138.5641 380.0,138.5641 390.0,155.8846 380.0,173.2051 360.0,173.2051 350.0,155.8846" fill-opacity="0.66" /> <polygon points="390.0,121.2436 410.0,121.2436 420.0,138.5641 410.0,155.8846 390.0,155.8846 380.0,138.5641" fill-opacity="0.91" /> <polygon points="420.0,138.5641 440.0,138.5641 450.0,155.8846 440.0,173.2051 420.0,173.2051 410.0,155.8846" fill-opacity="0.76" /> <polygon points="450.0,121.2436 470.0,121.2436 480.0,138.5641 470.0,155.8846 450.0,155.8846 440.0,138.5641" fill-opacity="0.93" /> <polygon points="480.0,138.5641 500.0,138.5641 510.0,155.8846 500.0,173.2051 480.0,173.2051 470.0,155.8846" fill-opacity="0.62" /> <polygon points="510.0,121.2436 530.0,121.2436 540.0,138.5641 530.0,155.8846 510.0,155.8846 500.0,138.5641" fill-opacity="0.67" /> <polygon points="540.0,138.5641 560.0,138.5641 570.0,155.8846 560.0,173.2051 540.0,173.2051 530.0,155.8846" fill-opacity="0.87" /> <polygon points="570.0,121.2436 590.0,121.2436 600.0,138.5641 590.0,155.8846 570.0,155.8846 560.0,138.5641" fill-opacity="0.48" /> <polygon points="0.0,173.2051 20.0,173.2051 30.0,190.5256 20.0,207.8461 0.0,207.8461 -10.0,190.5256" fill-opacity="0.29" /> <polygon points="30.0,155.8846 50.0,155.8846 60.0,173.2051 50.0,190.5256 30.0,190.5256 20.0,173.2051" fill-opacity="0.09" /> <polygon points="60.0,173.2051 80.0,173.2051 90.0,190.5256 80.0,207.8461 60.0,207.8461 50.0,190.5256" fill-opacity="0.07" /> <polygon points="90.0,155.8846 110.0,155.8846 120.0,173.2051 110.0,190.5256 90.0,190.5256 80.0,173.2051" fill-opacity="0.72" /> <polygon points="120.0,173.2051 140.0,173.2051 150.0,190.5256 140.0,207.8461 120.0,207.8461 110.0,190.5256" fill-opacity="0.44" /> <polygon points="150.0,155.8846 170.0,155.8846 180.0,173.2051 170.0,190.5256 150.0,190.5256 140.0,173.2051" fill-opacity="0.7" /> <polygon points="180.0,173.2051 200.0,173.2051 210.0,190.5256 200.0,207.8461 180.0,207.8461 170.0,190.5256" fill-opacity="0.3" /> <polygon points="210.0,155.8846 230.0,155.8846 240.0,173.2051 230.0,190.5256 210.0,190.5256 200.0,173.2051" fill-opacity="0.28" /> <polygon points="240.0,173.2051 260.0,173.2051 270.0,190.5256 260.0,207.8461 240.0,207.8461 230.0,190.5256" fill-opacity="0.15" /> <polygon points="270.0,155.8846 290.0,155.8846 300.0,173.2051 290.0,190.5256 270.0,190.5256 260.0,173.2051" fill-opacity="0.16" /> <polygon points="300.0,173.2051 320.0,173.2051 330.0,190.5256 320.0,207.8461 300.0,207.8461 290.0,190.5256" fill-opacity="0.04" /> <polygon points="330.0,155.8846 350.0,155.8846 360.0,173.2051 350.0,190.5256 330.0,190.5256 320.0,173.2051" fill-opacity="0.57" /> <polygon points="360.0,173.2051 380.0,173.2051 390.0,190.5256 380.0,207.8461 360.0,207.8461 350.0,190.5256" fill-opacity="0.07" /> <polygon points="390.0,155.8846 410.0,155.8846 420.0,173.2051 410.0,190.5256 390.0,190.5256 380.0,173.2051" fill-opacity="0.87" /> <polygon points="420.0,173.2051 440.0,173.2051 450.0,190.5256 440.0,207.8461 420.0,207.8461 410.0,190.5256" fill-opacity="0.45" /> <polygon points="450.0,155.8846 470.0,155.8846 480.0,173.2051 470.0,190.5256 450.0,190.5256 440.0,173.2051" fill-opacity="0.26" /> <polygon points="480.0,173.2051 500.0,173.2051 510.0,190.5256 500.0,207.8461 480.0,207.8461 470.0,190.5256" fill-opacity="0.65" /> <polygon points="510.0,155.8846 530.0,155.8846 540.0,173.2051 530.0,190.5256 510.0,190.5256 500.0,173.2051" fill-opacity="0.61" /> <polygon points="540.0,173.2051 560.0,173.2051 570.0,190.5256 560.0,207.8461 540.0,207.8461 530.0,190.5256" fill-opacity="0.17" /> <polygon points="570.0,155.8846 590.0,155.8846 600.0,173.2051 590.0,190.5256 570.0,190.5256 560.0,173.2051" fill-opacity="0.11" /> <polygon points="0.0,207.8461 20.0,207.8461 30.0,225.1666 20.0,242.4871 0.0,242.4871 -10.0,225.1666" fill-opacity="0.14" /> <polygon points="30.0,190.5256 50.0,190.5256 60.0,207.8461 50.0,225.1666 30.0,225.1666 20.0,207.8461" fill-opacity="0.87" /> <polygon points="60.0,207.8461 80.0,207.8461 90.0,225.1666 80.0,242.4871 60.0,242.4871 50.0,225.1666" fill-opacity="0.85" /> <polygon points="90.0,190.5256 110.0,190.5256 120.0,207.8461 110.0,225.1666 90.0,225.1666 80.0,207.8461" fill-opacity="0.35" /> <polygon points="120.0,207.8461 140.0,207.8461 150.0,225.1666 140.0,242.4871 120.0,242.4871 110.0,225.1666" fill-opacity="0.39" /> <polygon points="150.0,190.5256 170.0,190.5256 180.0,207.8461 170.0,225.1666 150.0,225.1666 140.0,207.8461" fill-opacity="0.25" /> <polygon points="180.0,207.8461 200.0,207.8461 210.0,225.1666 200.0,242.4871 180.0,242.4871 170.0,225.1666" fill-opacity="0.48" /> <polygon points="210.0,190.5256 230.0,190.5256 240.0,207.8461 230.0,225.1666 210.0,225.1666 200.0,207.8461" fill-opacity="0.65" /> <polygon points="240.0,207.8461 260.0,207.8461 270.0,225.1666 260.0,242.4871 240.0,242.4871 230.0,225.1666" fill-opacity="0.82" /> <polygon points="270.0,190.5256 290.0,190.5256 300.0,207.8461 290.0,225.1666 270.0,225.1666 260.0,207.8461" fill-opacity="0.71" /> <polygon points="300.0,207.8461 320.0,207.8461 330.0,225.1666 320.0,242.4871 300.0,242.4871 290.0,225.1666" fill-opacity="0.83" /> <polygon points="330.0,190.5256 350.0,190.5256 360.0,207.8461 350.0,225.1666 330.0,225.1666 320.0,207.8461" fill-opacity="0.2" /> <polygon points="360.0,207.8461 380.0,207.8461 390.0,225.1666 380.0,242.4871 360.0,242.4871 350.0,225.1666" fill-opacity="0.5" /> <polygon points="390.0,190.5256 410.0,190.5256 420.0,207.8461 410.0,225.1666 390.0,225.1666 380.0,207.8461" fill-opacity="0.4" /> <polygon points="420.0,207.8461 440.0,207.8461 450.0,225.1666 440.0,242.4871 420.0,242.4871 410.0,225.1666" fill-opacity="0.56" /> <polygon points="450.0,190.5256 470.0,190.5256 480.0,207.8461 470.0,225.1666 450.0,225.1666 440.0,207.8461" fill-opacity="0.52" /> <polygon points="480.0,207.8461 500.0,207.8461 510.0,225.1666 500.0,242.4871 480.0,242.4871 470.0,225.1666" fill-opacity="0.02" /> <polygon points="510.0,190.5256 530.0,190.5256 540.0,207.8461 530.0,225.1666 510.0,225.1666 500.0,207.8461" fill-opacity="0.27" /> <polygon points="540.0,207.8461 560.0,207.8461 570.0,225.1666 560.0,242.4871 540.0,242.4871 530.0,225.1666" fill-opacity="0.95" /> <polygon points="570.0,190.5256 590.0,190.5256 600.0,207.8461 590.0,225.1666 570.0,225.1666 560.0,207.8461" fill-opacity="0.04" /> <polygon points="0.0,242.4871 20.0,242.4871 30.0,259.8076 20.0,277.1281 0.0,277.1281 -10.0,259.8076" fill-opacity="0.49" /> <polygon points="30.0,225.1666 50.0,225.1666 60.0,242.4871 50.0,259.8076 30.0,259.8076 20.0,242.4871" fill-opacity="0.68" /> <polygon points="60.0,242.4871 80.0,242.4871 90.0,259.8076 80.0,277.1281 60.0,277.1281 50.0,259.8076" fill-opacity="0.96" /> <polygon points="90.0,225.1666 110.0,225.1666 120.0,242.4871 110.0,259.8076 90.0,259.8076 80.0,242.4871" fill-opacity="0.8" /> <polygon points="120.0,242.4871 140.0,242.4871 150.0,259.8076 140.0,277.1281 120.0,277.1281 110.0,259.8076" fill-opacity="0.42" /> <polygon points="150.0,225.1666 170.0,225.1666 180.0,242.4871 170.0,259.8076 150.0,259.8076 140.0,242.4871" fill-opacity="0.74" /> <polygon points="180.0,242.4871 200.0,242.4871 210.0,259.8076 200.0,277.1281 180.0,277.1281 170.0,259.8076" fill-opacity="0.68" /> <polygon points="210.0,225.1666 230.0,225.1666 240.0,242.4871 230.0,259.8076 210.0,259.8076 200.0,242.4871" fill-opacity="0.27" /> <polygon points="240.0,242.4871 260.0,242.4871 270.0,259.8076 260.0,277.1281 240.0,277.1281 230.0,259.8076" fill-opacity="0.74" /> <polygon points="270.0,225.1666 290.0,225.1666 300.0,242.4871 290.0,259.8076 270.0,259.8076 260.0,242.4871" fill-opacity="0.92" /> <polygon points="300.0,242.4871 320.0,242.4871 330.0,259.8076 320.0,277.1281 300.0,277.1281 290.0,259.8076" fill-opacity="0.21" /> <polygon points="330.0,225.1666 350.0,225.1666 360.0,242.4871 350.0,259.8076 330.0,259.8076 320.0,242.4871" fill-opacity="0.17" /> <polygon points="360.0,242.4871 380.0,242.4871 390.0,259.8076 380.0,277.1281 360.0,277.1281 350.0,259.8076" fill-opacity="0.11" /> <polygon points="390.0,225.1666 410.0,225.1666 420.0,242.4871 410.0,259.8076 390.0,259.8076 380.0,242.4871" fill-opacity="0.67" /> <polygon points="420.0,242.4871 440.0,242.4871 450.0,259.8076 440.0,277.1281 420.0,277.1281 410.0,259.8076" fill-opacity="0.6" /> <polygon points="450.0,225.1666 470.0,225.1666 480.0,242.4871 470.0,259.8076 450.0,259.8076 440.0,242.4871" fill-opacity="0.58" /> <polygon points="480.0,242.4871 500.0,242.4871 510.0,259.8076 500.0,277.1281 480.0,277.1281 470.0,259.8076" fill-opacity="0.19" /> <polygon points="510.0,225.1666 530.0,225.1666 540.0,242.4871 530.0,259.8076 510.0,259.8076 500.0,242.4871" fill-opacity="0.21" /> <polygon points="540.0,242.4871 560.0,242.4871 570.0,259.8076 560.0,277.1281 540.0,277.1281 530.0,259.8076" fill-opacity="0.82" /> <polygon points="570.0,225.1666 590.0,225.1666 600.0,242.4871 590.0,259.8076 570.0,259.8076 560.0,242.4871" fill-opacity="0.53" /> <polygon points="0.0,277.1281 20.0,277.1281 30.0,294.4486 20.0,311.7691 0.0,311.7691 -10.0,294.4486" fill-opacity="0.22" /> <polygon points="30.0,259.8076 50.0,259.8076 60.0,277.1281 50.0,294.4486 30.0,294.4486 20.0,277.1281" fill-opacity="0.15" /> <polygon points="60.0,277.1281 80.0,277.1281 90.0,294.4486 80.0,311.7691 60.0,311.7691 50.0,294.4486" fill-opacity="0.31" /> <polygon points="90.0,259.8076 110.0,259.8076 120.0,277.1281 110.0,294.4486 90.0,294.4486 80.0,277.1281" fill-opacity="0.12" /> <polygon points="120.0,277.1281 140.0,277.1281 150.0,294.4486 140.0,311.7691 120.0,311.7691 110.0,294.4486" fill-opacity="0.34" /> <polygon points="150.0,259.8076 170.0,259.8076 180.0,277.1281 170.0,294.4486 150.0,294.4486 140.0,277.1281" fill-opacity="0.36" /> <polygon points="180.0,277.1281 200.0,277.1281 210.0,294.4486 200.0,311.7691 180.0,311.7691 170.0,294.4486" fill-opacity="0.8" /> <polygon points="210.0,259.8076 230.0,259.8076 240.0,277.1281 230.0,294.4486 210.0,294.4486 200.0,277.1281" fill-opacity="0.16" /> <polygon points="240.0,277.1281 260.0,277.1281 270.0,294.4486 260.0,311.7691 240.0,311.7691 230.0,294.4486" fill-opacity="0.28" /> <polygon points="270.0,259.8076 290.0,259.8076 300.0,277.1281 290.0,294.4486 270.0,294.4486 260.0,277.1281" fill-opacity="0.54" /> <polygon points="300.0,277.1281 320.0,277.1281 330.0,294.4486 320.0,311.7691 300.0,311.7691 290.0,294.4486" fill-opacity="0.82" /> <polygon points="330.0,259.8076 350.0,259.8076 360.0,277.1281 350.0,294.4486 330.0,294.4486 320.0,277.1281" fill-opacity="0.4" /> <polygon points="360.0,277.1281 380.0,277.1281 390.0,294.4486 380.0,311.7691 360.0,311.7691 350.0,294.4486" fill-opacity="0.08" /> <polygon points="390.0,259.8076 410.0,259.8076 420.0,277.1281 410.0,294.4486 390.0,294.4486 380.0,277.1281" fill-opacity="0.29" /> <polygon points="420.0,277.1281 440.0,277.1281 450.0,294.4486 440.0,311.7691 420.0,311.7691 410.0,294.4486" fill-opacity="0.01" /> <polygon points="450.0,259.8076 470.0,259.8076 480.0,277.1281 470.0,294.4486 450.0,294.4486 440.0,277.1281" fill-opacity="0.6" /> <polygon points="480.0,277.1281 500.0,277.1281 510.0,294.4486 500.0,311.7691 480.0,311.7691 470.0,294.4486" fill-opacity="0.56" /> <polygon points="510.0,259.8076 530.0,259.8076 540.0,277.1281 530.0,294.4486 510.0,294.4486 500.0,277.1281" fill-opacity="0.24" /> <polygon points="540.0,277.1281 560.0,277.1281 570.0,294.4486 560.0,311.7691 540.0,311.7691 530.0,294.4486" fill-opacity="0.71" /> <polygon points="570.0,259.8076 590.0,259.8076 600.0,277.1281 590.0,294.4486 570.0,294.4486 560.0,277.1281" fill-opacity="0.64" /> <polygon points="0.0,311.7691 20.0,311.7691 30.0,329.0897 20.0,346.4102 0.0,346.4102 -10.0,329.0897" fill-opacity="0.2" /> <polygon points="30.0,294.4486 50.0,294.4486 60.0,311.7691 50.0,329.0897 30.0,329.0897 20.0,311.7691" fill-opacity="0.51" /> <polygon points="60.0,311.7691 80.0,311.7691 90.0,329.0897 80.0,346.4102 60.0,346.4102 50.0,329.0897" fill-opacity="0.05" /> <polygon points="90.0,294.4486 110.0,294.4486 120.0,311.7691 110.0,329.0897 90.0,329.0897 80.0,311.7691" fill-opacity="0.51" /> <polygon points="120.0,311.7691 140.0,311.7691 150.0,329.0897 140.0,346.4102 120.0,346.4102 110.0,329.0897" fill-opacity="0.73" /> <polygon points="150.0,294.4486 170.0,294.4486 180.0,311.7691 170.0,329.0897 150.0,329.0897 140.0,311.7691" fill-opacity="0.75" /> <polygon points="180.0,311.7691 200.0,311.7691 210.0,329.0897 200.0,346.4102 180.0,346.4102 170.0,329.0897" fill-opacity="0.21" /> <polygon points="210.0,294.4486 230.0,294.4486 240.0,311.7691 230.0,329.0897 210.0,329.0897 200.0,311.7691" fill-opacity="0.56" /> <polygon points="240.0,311.7691 260.0,311.7691 270.0,329.0897 260.0,346.4102 240.0,346.4102 230.0,329.0897" fill-opacity="0.07" /> <polygon points="270.0,294.4486 290.0,294.4486 300.0,311.7691 290.0,329.0897 270.0,329.0897 260.0,311.7691" fill-opacity="0.65" /> <polygon points="300.0,311.7691 320.0,311.7691 330.0,329.0897 320.0,346.4102 300.0,346.4102 290.0,329.0897" fill-opacity="0.65" /> <polygon points="330.0,294.4486 350.0,294.4486 360.0,311.7691 350.0,329.0897 330.0,329.0897 320.0,311.7691" fill-opacity="0.14" /> <polygon points="360.0,311.7691 380.0,311.7691 390.0,329.0897 380.0,346.4102 360.0,346.4102 350.0,329.0897" fill-opacity="0.84" /> <polygon points="390.0,294.4486 410.0,294.4486 420.0,311.7691 410.0,329.0897 390.0,329.0897 380.0,311.7691" fill-opacity="0.98" /> <polygon points="420.0,311.7691 440.0,311.7691 450.0,329.0897 440.0,346.4102 420.0,346.4102 410.0,329.0897" fill-opacity="0.75" /> <polygon points="450.0,294.4486 470.0,294.4486 480.0,311.7691 470.0,329.0897 450.0,329.0897 440.0,311.7691" fill-opacity="0.02" /> <polygon points="480.0,311.7691 500.0,311.7691 510.0,329.0897 500.0,346.4102 480.0,346.4102 470.0,329.0897" fill-opacity="0.81" /> <polygon points="510.0,294.4486 530.0,294.4486 540.0,311.7691 530.0,329.0897 510.0,329.0897 500.0,311.7691" fill-opacity="0.0" /> <polygon points="540.0,311.7691 560.0,311.7691 570.0,329.0897 560.0,346.4102 540.0,346.4102 530.0,329.0897" fill-opacity="0.89" /> <polygon points="570.0,294.4486 590.0,294.4486 600.0,311.7691 590.0,329.0897 570.0,329.0897 560.0,311.7691" fill-opacity="0.85" /> <polygon points="600.0,0.0 620.0,0.0 630.0,17.3205 620.0,34.641 600.0,34.641 590.0,17.3205" fill-opacity="0.2" /> <polygon points="30.0,329.0897 50.0,329.0897 60.0,346.4102 50.0,363.7307 30.0,363.7307 20.0,346.4102" fill-opacity="0.53" /> <polygon points="90.0,329.0897 110.0,329.0897 120.0,346.4102 110.0,363.7307 90.0,363.7307 80.0,346.4102" fill-opacity="0.32" /> <polygon points="150.0,329.0897 170.0,329.0897 180.0,346.4102 170.0,363.7307 150.0,363.7307 140.0,346.4102" fill-opacity="0.54" /> <polygon points="210.0,329.0897 230.0,329.0897 240.0,346.4102 230.0,363.7307 210.0,363.7307 200.0,346.4102" fill-opacity="0.01" /> <polygon points="270.0,329.0897 290.0,329.0897 300.0,346.4102 290.0,363.7307 270.0,363.7307 260.0,346.4102" fill-opacity="0.82" /> <polygon points="330.0,329.0897 350.0,329.0897 360.0,346.4102 350.0,363.7307 330.0,363.7307 320.0,346.4102" fill-opacity="0.75" /> <polygon points="390.0,329.0897 410.0,329.0897 420.0,346.4102 410.0,363.7307 390.0,363.7307 380.0,346.4102" fill-opacity="0.67" /> <polygon points="450.0,329.0897 470.0,329.0897 480.0,346.4102 470.0,363.7307 450.0,363.7307 440.0,346.4102" fill-opacity="0.33" /> <polygon points="510.0,329.0897 530.0,329.0897 540.0,346.4102 530.0,363.7307 510.0,363.7307 500.0,346.4102" fill-opacity="0.39" /> <polygon points="570.0,329.0897 590.0,329.0897 600.0,346.4102 590.0,363.7307 570.0,363.7307 560.0,346.4102" fill-opacity="0.81" /> <polygon points="600.0,34.641 620.0,34.641 630.0,51.9615 620.0,69.282 600.0,69.282 590.0,51.9615" fill-opacity="0.95" /> <polygon points="600.0,69.282 620.0,69.282 630.0,86.6025 620.0,103.923 600.0,103.923 590.0,86.6025" fill-opacity="0.89" /> <polygon points="600.0,103.923 620.0,103.923 630.0,121.2436 620.0,138.5641 600.0,138.5641 590.0,121.2436" fill-opacity="0.74" /> <polygon points="600.0,138.5641 620.0,138.5641 630.0,155.8846 620.0,173.2051 600.0,173.2051 590.0,155.8846" fill-opacity="0.31" /> <polygon points="600.0,173.2051 620.0,173.2051 630.0,190.5256 620.0,207.8461 600.0,207.8461 590.0,190.5256" fill-opacity="0.29" /> <polygon points="600.0,207.8461 620.0,207.8461 630.0,225.1666 620.0,242.4871 600.0,242.4871 590.0,225.1666" fill-opacity="0.14" /> <polygon points="600.0,242.4871 620.0,242.4871 630.0,259.8076 620.0,277.1281 600.0,277.1281 590.0,259.8076" fill-opacity="0.49" /> <polygon points="600.0,277.1281 620.0,277.1281 630.0,294.4486 620.0,311.7691 600.0,311.7691 590.0,294.4486" fill-opacity="0.22" /> <polygon points="600.0,311.7691 620.0,311.7691 630.0,329.0897 620.0,346.4102 600.0,346.4102 590.0,329.0897" fill-opacity="0.2" /></svg>